<svg width="134" height="134" viewBox="0 0 134 134" fill="none" xmlns="http://www.w3.org/2000/svg">
<path d="M107.741 96.9015L100.546 96.9295L100.474 78.5547C100.708 78.5381 100.966 78.5293 101.247 78.5282C101.529 78.5115 101.943 78.5021 102.489 78.4999C108.396 78.4769 112.988 80.0216 116.265 83.1338C119.527 86.2305 121.17 90.607 121.192 96.2632C121.202 99.0444 120.798 101.523 119.978 103.698C119.143 105.857 117.869 107.792 116.157 109.502C114.523 111.133 112.59 112.406 110.359 113.321C108.113 114.22 105.763 114.675 103.31 114.685C100.748 114.694 98.3943 114.266 96.2502 113.399C94.0906 112.533 92.148 111.236 90.4226 109.508C88.744 107.796 87.4707 105.832 86.6027 103.617C85.7346 101.386 85.2956 98.9811 85.2856 96.403C85.2725 93.0436 85.925 90.0723 87.2431 87.489C88.5611 84.8901 90.5291 82.7028 93.1472 80.9269L97.0694 89.0211C95.7451 89.995 94.765 91.0926 94.1291 92.3138C93.4775 93.5195 93.1547 94.8723 93.1605 96.3723C93.1714 99.1692 94.1175 101.369 95.9987 102.971C97.8643 104.573 100.414 105.368 103.649 105.355C106.914 105.342 109.481 104.528 111.35 102.911C113.219 101.294 114.148 99.0875 114.137 96.2907C114.128 93.9157 113.542 91.9414 112.379 90.3678C111.201 88.7786 109.643 87.855 107.705 87.5969L107.741 96.9015ZM107.424 63.6915L107.388 54.3869L96.0812 57.9232C95.7378 58.0339 95.1837 58.1845 94.4188 58.3749C93.6539 58.5654 92.6705 58.8114 91.4686 59.113C92.3131 59.3128 93.1186 59.5128 93.885 59.713C94.6513 59.8975 95.3865 60.0899 96.0904 60.2903L107.424 63.6915ZM120.295 76.7431L85.9369 65.0408L85.8913 53.3222L120.157 41.3293L120.194 50.6339L114.06 52.3922L114.111 65.6812L120.259 67.4385L120.295 76.7431ZM120.144 38.0246L85.8323 38.1582L85.7958 28.8067L112.093 28.7044L112.047 17.0794L120.063 17.0482L120.144 38.0246Z" fill="white"/>
<rect y="1" width="78" height="133" fill="white"/>
<path d="M56.0113 126.14L53.7582 121.324C55.4152 120.861 56.6815 120.018 57.5569 118.796C58.4155 117.574 58.841 116.015 58.8337 114.119C58.8267 112.325 58.3218 110.905 57.319 109.859C56.3162 108.797 54.9769 108.269 53.3011 108.275C51.1175 108.284 49.178 110.102 47.4825 113.732C47.2305 114.24 47.0459 114.63 46.9284 114.902C44.947 119.006 43.1549 121.746 41.5522 123.124C39.9325 124.484 37.9547 125.169 35.6187 125.178C32.5888 125.19 30.1304 124.175 28.2435 122.135C26.3566 120.077 25.4067 117.381 25.3937 114.046C25.383 111.304 25.9073 109.008 26.9665 107.159C28.0088 105.31 29.5188 104.026 31.4964 103.307L33.9523 108.02C32.7873 108.77 31.9356 109.594 31.3975 110.493C30.8592 111.376 30.5924 112.392 30.5968 113.543C30.6032 115.168 31.0314 116.462 31.8815 117.423C32.7315 118.368 33.8675 118.837 35.2893 118.832C37.5237 118.823 39.5975 116.716 41.5109 112.511C41.662 112.188 41.7795 111.934 41.8634 111.748C43.5418 108.068 45.1908 105.539 46.8104 104.162C48.4132 102.784 50.4248 102.091 52.8454 102.082C56.3662 102.068 59.1719 103.166 61.2625 105.375C63.3363 107.584 64.3805 110.577 64.3952 114.351C64.4075 117.517 63.6897 120.118 62.2419 122.155C60.7941 124.175 58.7172 125.503 56.0113 126.14ZM48.7013 87.6504L48.6609 77.2911L40.1953 81.1327C39.6545 81.3548 39.0376 81.5858 38.3445 81.8254C37.6345 82.0652 36.8483 82.3052 35.986 82.5456C36.7993 82.7455 37.5618 82.9626 38.2737 83.1968C38.9685 83.4142 39.6127 83.6402 40.206 83.8748L48.7013 87.6504ZM63.2357 70.8866L53.6799 75.1387L53.7373 89.8652L63.3263 94.1443L63.351 100.492L24.6366 82.6405L63.2109 64.5136L63.2357 70.8866ZM41.6939 55.1774L41.6849 52.8669C41.6737 49.9893 41.2765 47.9596 40.4932 46.7777C39.693 45.579 38.3619 44.9833 36.4999 44.9905C34.4687 44.9984 33.049 45.5541 32.2408 46.6575C31.4156 47.761 31.009 49.8446 31.0209 52.9084L31.0299 55.2189L41.6939 55.1774ZM58.1215 55.1135L58.1134 53.0315C58.1052 50.9156 58.0144 49.3332 57.841 48.2844C57.6677 47.2356 57.3682 46.4074 56.9427 45.7996C56.4489 45.0568 55.7865 44.4838 54.9555 44.0808C54.1245 43.6778 53.2097 43.4782 52.211 43.4821C51.0261 43.4867 49.9945 43.7362 49.1162 44.2305C48.2379 44.7248 47.5551 45.4299 47.0678 46.3459C46.7823 46.9225 46.5733 47.5835 46.4407 48.3288C46.3082 49.0572 46.2442 50.0308 46.249 51.2495L46.2561 53.0776L46.2642 55.1596L58.1215 55.1135ZM63.1973 61.0098L26.0257 61.1545L25.9892 51.7854C25.9788 49.111 26.115 47.1384 26.3978 45.8678C26.6805 44.5802 27.1503 43.4866 27.8069 42.5869C28.6488 41.4325 29.754 40.5395 31.1227 39.9079C32.4913 39.2594 34.005 38.9318 35.6638 38.9254C37.6443 38.9177 39.3049 39.3682 40.6457 40.2771C41.9695 41.186 42.8972 42.5112 43.4287 44.2526C43.7589 42.0846 44.7425 40.3796 46.3796 39.1376C47.9997 37.8787 50.0539 37.2444 52.5421 37.2347C54.0486 37.2288 55.48 37.4856 56.8362 38.0051C58.1924 38.5245 59.3463 39.2648 60.298 40.226C61.3345 41.2376 62.0672 42.4958 62.4963 44.0007C62.9253 45.5055 63.1467 48.0353 63.1606 51.5899L63.1973 61.0098ZM28.6041 32.1227C27.6731 32.1264 26.8677 31.791 26.188 31.1165C25.5082 30.4251 25.1665 29.6055 25.1628 28.6576C25.159 27.6758 25.4859 26.8621 26.1436 26.2163C26.7842 25.5536 27.5954 25.2204 28.5772 25.2165C29.5589 25.2127 30.3897 25.5396 31.0693 26.1971C31.732 26.8547 32.0653 27.6659 32.069 28.6307C32.0727 29.5786 31.7374 30.4009 31.063 31.0975C30.3716 31.7773 29.552 32.119 28.6041 32.1227ZM63.0814 31.2522L39.0113 31.3459L38.9898 25.8362L63.06 25.7425L63.0814 31.2522ZM28.5509 18.4627C27.6199 18.4663 26.8146 18.1309 26.1348 17.4565C25.4551 16.7651 25.1133 15.9454 25.1096 14.9975C25.1058 14.0158 25.4327 13.202 26.0904 12.5562C26.731 11.8935 27.5422 11.5603 28.524 11.5565C29.5058 11.5527 30.3365 11.8795 31.0161 12.537C31.6788 13.1946 32.0121 14.0058 32.0158 14.9707C32.0195 15.9186 31.6842 16.7408 31.0098 17.4375C30.3184 18.1173 29.4988 18.459 28.5509 18.4627ZM63.0282 17.5921L38.9581 17.6858L38.9367 12.1761L63.0068 12.0824L63.0282 17.5921Z" fill="black"/>
<path d="M7.44034 17.361C7.40531 17.5567 7.40952 17.7573 7.45272 17.9514C7.49592 18.1454 7.57726 18.3289 7.69201 18.4913C7.80675 18.6536 7.95261 18.7915 8.12112 18.897C8.28962 19.0024 8.4774 19.0733 8.67356 19.1056C8.86971 19.1379 9.07032 19.1308 9.26372 19.0849C9.45713 19.0389 9.63947 18.955 9.80016 18.838C9.96085 18.721 10.0967 18.5732 10.1998 18.4032C10.3028 18.2332 10.3711 18.0444 10.4006 17.8478L11.2735 12.5402L20.6549 25.615L8.08512 34.6341C7.76199 34.866 7.54421 35.2168 7.47966 35.6093C7.41511 36.0018 7.50907 36.4038 7.74089 36.727L19.2833 52.8135C19.3963 52.978 19.541 53.1182 19.7089 53.2261C19.8768 53.3339 20.0646 53.4072 20.2611 53.4416C20.4577 53.476 20.6592 53.4708 20.8538 53.4264C21.0483 53.3819 21.232 53.2991 21.3942 53.1827C21.5563 53.0664 21.6936 52.9189 21.7981 52.7488C21.9025 52.5787 21.9719 52.3895 22.0023 52.1923C22.0327 51.995 22.0234 51.7937 21.975 51.6001C21.9266 51.4065 21.8401 51.2245 21.7205 51.0647L11.0525 36.1969L23.6222 27.1778C23.9454 26.9459 24.1632 26.5951 24.2277 26.2026C24.2923 25.8101 24.1983 25.408 23.9665 25.0848L13.7107 10.7915L19.0183 11.6644C19.214 11.6995 19.4147 11.6953 19.6087 11.6521C19.8027 11.6089 19.9863 11.5275 20.1486 11.4128C20.3109 11.298 20.4488 11.1522 20.5543 10.9837C20.6598 10.8152 20.7307 10.6274 20.7629 10.4312C20.7952 10.2351 20.7882 10.0345 20.7422 9.84105C20.6963 9.64765 20.6123 9.4653 20.4953 9.30461C20.3783 9.14392 20.2305 9.0081 20.0605 8.90502C19.8905 8.80195 19.7018 8.73369 19.5052 8.7042L10.6245 7.24361C10.2319 7.17909 9.82984 7.27313 9.50662 7.50504C9.1834 7.73696 8.96554 8.08776 8.90094 8.48029L7.44034 17.361Z" fill="black"/>
</svg>
